<svg xmlns="http://www.w3.org/2000/svg" xmlns:xlink="http://www.w3.org/1999/xlink" width="500" zoomAndPan="magnify" viewBox="0 0 375 374.999991" height="500" preserveAspectRatio="xMidYMid meet" version="1.0"><defs><clipPath id="b0f708768e"><path d="M 75.691406 68.085938 L 299.191406 68.085938 L 299.191406 337.335938 L 75.691406 337.335938 Z M 75.691406 68.085938 " clip-rule="nonzero"/></clipPath><clipPath id="508712511d"><path d="M 112.5 173 L 124 173 L 124 191 L 112.5 191 Z M 112.5 173 " clip-rule="nonzero"/></clipPath><clipPath id="aba37e39c9"><path d="M 123 119.046875 L 252 119.046875 L 252 256 L 123 256 Z M 123 119.046875 " clip-rule="nonzero"/></clipPath><clipPath id="ca5e2064bf"><path d="M 251 174 L 262.5 174 L 262.5 192 L 251 192 Z M 251 174 " clip-rule="nonzero"/></clipPath><clipPath id="ef5588fd4b"><path d="M 212 154 L 226.6875 154 L 226.6875 173 L 212 173 Z M 212 154 " clip-rule="nonzero"/></clipPath><clipPath id="8c45a7d849"><path d="M 198 168 L 226.6875 168 L 226.6875 197 L 198 197 Z M 198 168 " clip-rule="nonzero"/></clipPath><clipPath id="630a1c124a"><path d="M 177 134.886719 L 198 134.886719 L 198 148 L 177 148 Z M 177 134.886719 " clip-rule="nonzero"/></clipPath><clipPath id="24f3b269e8"><path d="M 148.6875 168 L 177 168 L 177 197 L 148.6875 197 Z M 148.6875 168 " clip-rule="nonzero"/></clipPath><clipPath id="6c7332f250"><path d="M 148.6875 154 L 163 154 L 163 173 L 148.6875 173 Z M 148.6875 154 " clip-rule="nonzero"/></clipPath><clipPath id="f6f63ee0bd"><path d="M 157 273 L 218 273 L 218 284.886719 L 157 284.886719 Z M 157 273 " clip-rule="nonzero"/></clipPath><clipPath id="7378faecec"><path d="M 167 125 L 208 125 L 208 129.660156 L 167 129.660156 Z M 167 125 " clip-rule="nonzero"/></clipPath><clipPath id="e5dd617a2f"><path d="M 157 86.160156 L 218 86.160156 L 218 128 L 157 128 Z M 157 86.160156 " clip-rule="nonzero"/></clipPath></defs><g clip-path="url(#b0f708768e)"><path fill="#4b9960" d="M 187.464844 68.085938 Z M 187.464844 68.085938 Z M 187.464844 74.726562 Z M 187.464844 74.726562 Z M 187.464844 74.726562 Z M 187.464844 74.726562 Z M 187.464844 74.726562 L 187.464844 202.757812 Z M 187.464844 68.085938 L 75.765625 100.757812 C 75.703125 145.816406 77.101562 179.261719 79.964844 201.097656 C 81.042969 209.90625 82.460938 218.339844 84.214844 226.402344 L 87.164062 238.144531 C 89.324219 245.761719 91.945312 252.863281 95.035156 259.453125 C 98.152344 266.011719 101.734375 272.058594 105.78125 277.589844 C 107.351562 280.855469 114.261719 288.230469 126.507812 299.710938 C 139.160156 310.746094 159.476562 323.316406 187.464844 337.425781 L 187.464844 330.78125 L 187.464844 330.785156 L 187.464844 74.726562 L 187.464844 330.78125 C 160.859375 317.371094 141.542969 305.417969 129.515625 294.925781 C 117.871094 284.011719 111.304688 277.003906 109.8125 273.898438 C 105.964844 268.640625 102.558594 262.890625 99.59375 256.65625 C 96.65625 250.394531 94.164062 243.640625 92.113281 236.398438 L 89.308594 225.234375 C 87.640625 217.570312 86.292969 209.550781 85.269531 201.179688 C 82.546875 180.421875 81.214844 148.625 81.277344 105.789062 L 187.464844 74.726562 Z M 187.464844 68.085938 L 187.464844 74.726562 L 293.65625 105.789062 C 293.714844 148.625 292.386719 180.421875 289.664062 201.179688 C 288.636719 209.550781 287.292969 217.570312 285.625 225.234375 L 282.820312 236.398438 C 280.769531 243.640625 278.273438 250.394531 275.339844 256.65625 C 272.375 262.890625 268.96875 268.640625 265.121094 273.898438 C 263.628906 277.003906 257.0625 284.011719 245.417969 294.925781 C 233.390625 305.417969 214.074219 317.371094 187.464844 330.785156 L 187.464844 202.757812 L 187.464844 337.425781 C 215.453125 323.316406 235.773438 310.746094 248.421875 299.710938 C 260.671875 288.230469 267.582031 280.855469 269.148438 277.589844 C 273.199219 272.058594 276.78125 266.011719 279.898438 259.453125 C 282.988281 252.863281 285.609375 245.761719 287.765625 238.144531 L 290.71875 226.402344 C 292.472656 218.339844 293.886719 209.90625 294.964844 201.097656 C 297.828125 179.261719 299.230469 145.816406 299.167969 100.757812 Z M 187.464844 68.085938 " fill-opacity="1" fill-rule="nonzero"/></g><path fill="#4b9960" d="M 187.464844 81.359375 Z M 187.464844 81.359375 Z M 187.464844 81.359375 L 86.777344 110.8125 C 86.71875 151.429688 87.984375 181.578125 90.5625 201.261719 C 91.535156 209.199219 92.8125 216.804688 94.394531 224.070312 L 97.054688 234.65625 C 98.996094 241.523438 101.363281 247.925781 104.144531 253.863281 C 106.957031 259.777344 110.183594 265.226562 113.835938 270.210938 C 115.25 273.15625 121.476562 279.804688 132.519531 290.152344 C 143.921875 300.101562 162.238281 311.433594 187.464844 324.152344 Z M 187.464844 81.359375 L 187.46875 324.152344 C 212.695312 311.433594 231.011719 300.101562 242.414062 290.152344 C 253.457031 279.804688 259.683594 273.15625 261.097656 270.210938 C 264.746094 265.226562 267.976562 259.777344 270.785156 253.863281 C 273.570312 247.925781 275.933594 241.523438 277.878906 234.65625 L 280.539062 224.070312 C 282.121094 216.804688 283.398438 209.199219 284.367188 201.261719 C 286.949219 181.578125 288.210938 151.429688 288.15625 110.8125 Z M 187.464844 81.359375 " fill-opacity="1" fill-rule="nonzero"/><path fill="#ebc35e" d="M 166.410156 239.832031 C 165.421875 239.066406 164.523438 238.574219 163.535156 238.214844 C 162.589844 237.855469 161.554688 237.675781 160.523438 237.628906 C 158.457031 237.539062 156.164062 237.945312 153.964844 238.4375 C 151.761719 238.976562 149.695312 239.605469 148.167969 240.144531 C 146.640625 240.640625 145.609375 241.042969 145.609375 241.042969 C 145.609375 241.042969 146.597656 241.628906 148.167969 242.300781 C 149.742188 242.976562 151.941406 243.738281 154.324219 244.144531 C 156.703125 244.546875 159.308594 244.59375 161.554688 243.964844 C 163.847656 243.425781 165.78125 242.03125 166.410156 239.832031 Z M 166.410156 239.832031 " fill-opacity="1" fill-rule="nonzero"/><path fill="#ebc35e" d="M 159.714844 230.171875 C 160.566406 232.105469 161.78125 233.945312 163.398438 235.160156 C 164.207031 235.742188 165.105469 236.238281 166.09375 236.417969 C 167.039062 236.597656 168.117188 236.550781 169.105469 236.148438 C 169.148438 233.855469 168.519531 232.058594 167.578125 230.488281 C 166.589844 228.914062 165.195312 227.566406 163.757812 226.398438 C 162.320312 225.230469 160.835938 224.242188 159.757812 223.566406 C 158.636719 222.894531 157.871094 222.488281 157.871094 222.488281 C 157.871094 222.488281 157.871094 222.714844 157.917969 223.164062 C 157.960938 223.566406 158.050781 224.195312 158.140625 224.917969 C 158.410156 226.308594 158.859375 228.242188 159.714844 230.171875 Z M 159.714844 230.171875 " fill-opacity="1" fill-rule="nonzero"/><path fill="#ebc35e" d="M 144.035156 235.25 C 146.238281 235.160156 148.167969 234.304688 149.515625 232.464844 C 148.4375 230.53125 146.777344 229.453125 144.800781 228.871094 C 142.824219 228.285156 140.53125 228.105469 138.285156 228.015625 C 136.039062 227.972656 133.792969 228.015625 132.132812 228.015625 C 130.425781 228.0625 129.347656 228.0625 129.347656 228.0625 C 129.347656 228.0625 129.570312 228.285156 129.929688 228.691406 C 130.335938 229.050781 130.875 229.589844 131.59375 230.171875 C 133.03125 231.339844 135.007812 232.6875 137.253906 233.722656 C 139.410156 234.710938 141.835938 235.339844 144.035156 235.25 Z M 144.035156 235.25 " fill-opacity="1" fill-rule="nonzero"/><path fill="#ebc35e" d="M 148.167969 226.625 C 149.425781 228.195312 151.132812 229.230469 153.289062 229.140625 C 154.1875 227.027344 154.007812 225.050781 153.425781 223.207031 C 152.839844 221.367188 151.761719 219.703125 150.730469 218.222656 C 149.652344 216.738281 148.574219 215.527344 147.765625 214.628906 C 147.359375 214.179688 147.046875 213.820312 146.820312 213.550781 C 146.597656 213.28125 146.460938 213.144531 146.460938 213.144531 C 146.460938 213.144531 146.371094 213.371094 146.28125 213.773438 C 146.191406 214.179688 146.058594 214.761719 145.921875 215.480469 C 145.699219 216.917969 145.609375 218.894531 145.878906 220.917969 C 146.191406 222.9375 146.957031 225.050781 148.167969 226.625 Z M 148.167969 226.625 " fill-opacity="1" fill-rule="nonzero"/><path fill="#ebc35e" d="M 121.441406 210.945312 C 119.867188 210.449219 118.878906 210.179688 118.878906 210.179688 C 118.878906 210.179688 118.96875 210.449219 119.148438 210.855469 C 119.375 211.257812 119.6875 211.886719 120.046875 212.605469 C 120.453125 213.324219 120.945312 214.132812 121.484375 215.03125 C 121.753906 215.480469 122.070312 215.929688 122.382812 216.335938 L 122.652344 216.695312 L 122.96875 217.097656 C 123.191406 217.367188 123.417969 217.636719 123.640625 217.90625 C 125.4375 220.0625 127.683594 221.726562 129.886719 222.398438 C 132.085938 223.117188 134.199219 222.894531 136.039062 221.5 C 135.546875 219.300781 134.289062 217.816406 132.625 216.515625 C 132.222656 216.199219 131.773438 215.886719 131.324219 215.570312 C 130.875 215.257812 130.378906 214.988281 129.886719 214.671875 C 129.390625 214.359375 128.898438 214.089844 128.359375 213.773438 C 127.863281 213.503906 127.371094 213.28125 126.875 213.011719 C 124.988281 212.15625 122.96875 211.4375 121.441406 210.945312 Z M 121.441406 210.945312 " fill-opacity="1" fill-rule="nonzero"/><path fill="#ebc35e" d="M 136.625 214.808594 C 137.207031 216.695312 138.554688 218.222656 140.621094 218.714844 C 142.058594 216.964844 142.507812 215.03125 142.644531 213.191406 C 142.734375 211.347656 142.507812 209.640625 142.328125 208.203125 C 142.285156 207.574219 142.015625 206.542969 141.789062 205.734375 C 141.566406 204.878906 141.296875 204.160156 141.070312 203.53125 C 140.847656 202.902344 140.621094 202.410156 140.488281 202.050781 C 140.351562 201.691406 140.261719 201.464844 140.261719 201.464844 C 140.261719 201.464844 140.128906 201.691406 139.859375 202.050781 C 139.632812 202.410156 139.320312 202.949219 138.960938 203.621094 C 138.285156 204.925781 137.433594 206.765625 136.894531 208.789062 C 136.757812 209.28125 136.625 209.820312 136.535156 210.359375 C 136.445312 210.855469 136.355469 211.347656 136.308594 211.84375 C 136.265625 212.335938 136.308594 212.832031 136.355469 213.371094 C 136.355469 213.863281 136.445312 214.359375 136.625 214.808594 Z M 136.625 214.808594 " fill-opacity="1" fill-rule="nonzero"/><path fill="#ebc35e" d="M 119.058594 203.261719 C 119.417969 203.710938 119.824219 204.070312 120.273438 204.429688 C 120.675781 204.789062 121.125 205.105469 121.574219 205.417969 C 123.371094 206.585938 125.394531 207.082031 127.550781 206.40625 C 127.730469 205.328125 127.640625 204.339844 127.371094 203.398438 C 127.234375 202.949219 127.011719 202.5 126.785156 202.050781 C 126.5625 201.601562 126.246094 201.195312 125.976562 200.792969 C 124.808594 199.175781 123.011719 197.738281 121.171875 196.523438 C 119.417969 195.265625 117.53125 194.1875 116.09375 193.378906 C 114.65625 192.617188 113.714844 192.121094 113.714844 192.121094 C 113.714844 192.121094 113.757812 192.390625 113.847656 192.886719 C 113.984375 193.335938 114.164062 194.007812 114.433594 194.816406 C 114.972656 196.390625 115.734375 198.546875 116.992188 200.476562 C 117.621094 201.464844 118.296875 202.410156 119.058594 203.261719 Z M 119.058594 203.261719 " fill-opacity="1" fill-rule="nonzero"/><path fill="#ebc35e" d="M 130.828125 202.453125 C 131.234375 203.308594 131.863281 204.070312 132.761719 204.65625 C 134.738281 203.53125 135.859375 201.824219 136.445312 199.984375 C 136.578125 199.535156 136.714844 199.039062 136.804688 198.589844 C 136.847656 198.367188 136.894531 198.097656 136.894531 197.871094 C 136.9375 197.648438 136.984375 197.378906 136.984375 197.152344 C 137.117188 196.164062 137.117188 195.222656 137.117188 194.277344 C 136.984375 192.4375 136.894531 190.640625 136.625 189.382812 C 136.535156 188.753906 136.398438 188.214844 136.308594 187.855469 C 136.265625 187.496094 136.21875 187.269531 136.21875 187.269531 C 136.21875 187.269531 136.039062 187.449219 135.726562 187.765625 C 135.410156 188.078125 135.007812 188.527344 134.558594 189.066406 C 133.613281 190.191406 132.492188 191.808594 131.546875 193.695312 C 130.648438 195.582031 130.066406 197.648438 130.109375 199.667969 C 130.109375 200.164062 130.199219 200.65625 130.289062 201.105469 C 130.46875 201.554688 130.605469 202.003906 130.828125 202.453125 Z M 130.828125 202.453125 " fill-opacity="1" fill-rule="nonzero"/><g clip-path="url(#508712511d)"><path fill="#ebc35e" d="M 115.242188 185.339844 C 115.511719 185.832031 115.824219 186.328125 116.140625 186.777344 C 116.5 187.226562 116.859375 187.628906 117.261719 187.988281 C 118.835938 189.515625 120.675781 190.371094 122.96875 190.144531 C 123.371094 189.113281 123.460938 188.125 123.371094 187.179688 C 123.328125 186.6875 123.191406 186.238281 123.058594 185.789062 C 122.921875 185.339844 122.742188 184.84375 122.5625 184.394531 C 122.160156 183.496094 121.574219 182.597656 120.902344 181.699219 C 120.542969 181.25 120.226562 180.847656 119.867188 180.398438 C 119.507812 179.992188 119.148438 179.542969 118.789062 179.140625 C 117.308594 177.523438 115.691406 175.996094 114.523438 174.917969 C 113.355469 173.792969 112.542969 173.117188 112.542969 173.117188 C 112.542969 173.117188 112.5 174.242188 112.636719 175.949219 C 112.679688 176.804688 112.859375 177.792969 113.039062 178.824219 C 113.128906 179.363281 113.265625 179.902344 113.398438 180.441406 C 113.535156 180.980469 113.667969 181.566406 113.894531 182.105469 C 114.207031 183.226562 114.703125 184.304688 115.242188 185.339844 Z M 115.242188 185.339844 " fill-opacity="1" fill-rule="nonzero"/></g><path fill="#ebc35e" d="M 128.359375 188.933594 C 130.515625 188.167969 131.953125 186.777344 132.894531 185.113281 C 133.121094 184.710938 133.34375 184.261719 133.523438 183.855469 C 133.75 183.40625 133.929688 182.957031 134.0625 182.507812 C 134.378906 181.609375 134.601562 180.710938 134.738281 179.8125 C 134.917969 178.914062 135.097656 178.0625 135.1875 177.253906 C 135.230469 176.847656 135.277344 176.488281 135.277344 176.085938 C 135.320312 175.726562 135.320312 175.367188 135.367188 175.097656 C 135.5 173.835938 135.5 173.027344 135.5 173.027344 C 135.5 173.027344 134.648438 173.476562 133.480469 174.332031 C 133.164062 174.558594 132.851562 174.78125 132.535156 175.050781 C 132.175781 175.320312 131.863281 175.589844 131.546875 175.90625 C 130.875 176.535156 130.199219 177.253906 129.527344 178.0625 C 129.210938 178.464844 128.898438 178.871094 128.582031 179.320312 C 128.449219 179.542969 128.269531 179.769531 128.132812 179.992188 C 128 180.21875 127.910156 180.441406 127.773438 180.667969 C 127.324219 181.566406 126.964844 182.554688 126.785156 183.542969 C 126.695312 184.035156 126.652344 184.53125 126.652344 184.980469 C 126.695312 185.472656 126.742188 185.921875 126.875 186.371094 C 127.144531 187.359375 127.59375 188.214844 128.359375 188.933594 Z M 128.359375 188.933594 " fill-opacity="1" fill-rule="nonzero"/><path fill="#ebc35e" d="M 120.496094 161.664062 C 120.003906 160.675781 119.464844 159.730469 118.925781 158.878906 C 118.386719 157.980469 117.890625 157.171875 117.488281 156.496094 C 116.632812 155.148438 116.003906 154.25 116.003906 154.25 C 116.003906 154.25 115.691406 155.328125 115.332031 156.992188 C 115.195312 157.84375 115.105469 158.832031 115.015625 159.910156 C 114.972656 160.449219 114.925781 160.988281 114.925781 161.574219 C 114.925781 162.15625 114.972656 162.742188 115.015625 163.324219 C 115.105469 164.492188 115.285156 165.660156 115.554688 166.785156 C 115.871094 167.90625 116.320312 168.941406 116.859375 169.882812 C 117.9375 171.726562 119.644531 173.027344 121.890625 173.34375 C 122.203125 172.894531 122.382812 172.445312 122.5625 171.949219 C 122.742188 171.5 122.878906 171.007812 122.921875 170.558594 C 123.058594 169.613281 123.011719 168.625 122.789062 167.636719 C 122.609375 166.648438 122.292969 165.660156 121.84375 164.671875 C 121.53125 163.683594 120.992188 162.652344 120.496094 161.664062 Z M 120.496094 161.664062 " fill-opacity="1" fill-rule="nonzero"/><path fill="#ebc35e" d="M 132.714844 170.289062 C 133.390625 169.613281 133.972656 168.894531 134.46875 168.085938 C 135.007812 167.324219 135.457031 166.515625 135.859375 165.707031 C 136.039062 165.300781 136.21875 164.898438 136.398438 164.539062 C 136.578125 164.132812 136.757812 163.773438 136.894531 163.414062 C 137.207031 162.695312 137.433594 162.023438 137.613281 161.4375 C 138.0625 160.269531 138.242188 159.507812 138.242188 159.507812 C 138.242188 159.507812 137.296875 159.730469 135.949219 160.226562 C 134.558594 160.71875 132.851562 161.574219 131.1875 162.785156 C 130.785156 163.101562 130.335938 163.414062 129.976562 163.773438 C 129.617188 164.132812 129.257812 164.492188 128.898438 164.851562 C 128.222656 165.617188 127.59375 166.46875 127.191406 167.324219 C 126.832031 168.222656 126.605469 169.164062 126.605469 170.0625 C 126.605469 170.511719 126.652344 171.007812 126.785156 171.457031 C 126.921875 171.90625 127.144531 172.398438 127.414062 172.804688 C 129.660156 172.667969 131.324219 171.636719 132.714844 170.289062 Z M 132.714844 170.289062 " fill-opacity="1" fill-rule="nonzero"/><path fill="#ebc35e" d="M 126.066406 155.734375 C 126.382812 155.328125 126.605469 154.925781 126.785156 154.476562 C 126.964844 154.027344 127.101562 153.578125 127.191406 153.128906 C 127.28125 152.679688 127.324219 152.183594 127.371094 151.691406 C 127.460938 150.703125 127.371094 149.667969 127.191406 148.589844 C 127.011719 147.511719 126.832031 146.433594 126.5625 145.402344 C 126.023438 143.246094 125.4375 141.222656 124.898438 139.695312 C 124.359375 138.167969 124 137.179688 124 137.179688 C 124 137.179688 123.867188 137.40625 123.640625 137.855469 C 123.417969 138.304688 123.101562 138.886719 122.789062 139.652344 C 122.070312 141.132812 121.351562 143.289062 120.902344 145.582031 C 120.722656 146.75 120.585938 147.917969 120.585938 149.039062 C 120.585938 149.625 120.632812 150.164062 120.722656 150.746094 C 120.8125 151.285156 120.902344 151.824219 121.082031 152.363281 C 121.394531 153.398438 121.84375 154.296875 122.519531 155.105469 C 123.191406 155.867188 124.046875 156.542969 125.078125 156.945312 C 125.484375 156.496094 125.796875 156.136719 126.066406 155.734375 Z M 126.066406 155.734375 " fill-opacity="1" fill-rule="nonzero"/><path fill="#ebc35e" d="M 143.945312 147.558594 C 144.125 147.242188 144.261719 147.0625 144.261719 147.0625 C 144.261719 147.0625 144.035156 147.0625 143.585938 147.0625 C 143.136719 147.0625 142.554688 147.109375 141.835938 147.199219 C 141.117188 147.289062 140.261719 147.421875 139.363281 147.648438 C 138.914062 147.738281 138.421875 147.871094 137.972656 148.007812 C 137.523438 148.140625 137.027344 148.320312 136.578125 148.5 C 135.636719 148.859375 134.691406 149.308594 133.839844 149.894531 C 132.984375 150.476562 132.222656 151.105469 131.59375 151.871094 C 131.277344 152.230469 131.007812 152.632812 130.828125 153.039062 C 130.605469 153.441406 130.46875 153.890625 130.335938 154.339844 C 130.199219 154.789062 130.15625 155.238281 130.15625 155.734375 C 130.199219 156.226562 130.289062 156.722656 130.425781 157.214844 C 131.546875 157.394531 132.582031 157.351562 133.523438 157.125 C 134.46875 156.902344 135.367188 156.542969 136.21875 156.09375 C 136.625 155.867188 137.027344 155.597656 137.386719 155.328125 C 137.566406 155.195312 137.746094 155.058594 137.925781 154.878906 C 138.105469 154.746094 138.285156 154.566406 138.464844 154.429688 C 139.183594 153.800781 139.8125 153.171875 140.351562 152.453125 C 140.9375 151.78125 141.476562 151.105469 141.925781 150.476562 C 142.058594 150.296875 142.148438 150.164062 142.238281 149.984375 C 142.375 149.847656 142.464844 149.667969 142.554688 149.535156 C 142.777344 149.21875 142.957031 148.949219 143.136719 148.726562 C 143.496094 148.320312 143.765625 147.871094 143.945312 147.558594 Z M 143.945312 147.558594 " fill-opacity="1" fill-rule="nonzero"/><path fill="#ebc35e" d="M 132.222656 141.851562 C 133.210938 141.359375 133.929688 140.730469 134.46875 139.964844 C 135.050781 139.246094 135.457031 138.347656 135.726562 137.40625 C 136.308594 135.519531 136.398438 133.273438 136.398438 131.117188 C 136.398438 130.578125 136.355469 130.039062 136.308594 129.5 C 136.308594 128.960938 136.265625 128.464844 136.21875 127.972656 C 136.128906 126.984375 136.039062 126.039062 135.949219 125.230469 C 135.769531 123.65625 135.589844 122.578125 135.589844 122.578125 C 135.589844 122.578125 135.410156 122.804688 135.097656 123.117188 C 134.78125 123.476562 134.332031 123.972656 133.882812 124.648438 C 133.390625 125.320312 132.851562 126.085938 132.3125 126.984375 C 131.773438 127.882812 131.234375 128.871094 130.785156 129.902344 C 130.335938 130.980469 129.976562 132.058594 129.707031 133.136719 C 129.480469 134.261719 129.347656 135.339844 129.390625 136.417969 C 129.570312 138.574219 130.425781 140.503906 132.222656 141.851562 Z M 132.222656 141.851562 " fill-opacity="1" fill-rule="nonzero"/><path fill="#ebc35e" d="M 148.035156 140.730469 C 148.753906 140.191406 149.472656 139.652344 150.054688 139.113281 C 150.640625 138.574219 151.222656 138.078125 151.671875 137.628906 C 152.121094 137.179688 152.480469 136.820312 152.75 136.550781 C 153.019531 136.28125 153.15625 136.148438 153.15625 136.148438 C 153.15625 136.148438 152.210938 135.921875 150.730469 135.789062 C 150.011719 135.699219 149.15625 135.699219 148.214844 135.699219 C 147.269531 135.699219 146.28125 135.742188 145.292969 135.921875 C 143.273438 136.238281 141.25 136.910156 139.679688 138.078125 C 138.914062 138.664062 138.285156 139.382812 137.835938 140.191406 C 137.433594 141 137.207031 141.941406 137.253906 142.976562 C 139.363281 143.875 141.339844 143.828125 143.136719 143.289062 C 144.035156 143.019531 144.933594 142.660156 145.742188 142.210938 C 146.550781 141.761719 147.316406 141.269531 148.035156 140.730469 Z M 148.035156 140.730469 " fill-opacity="1" fill-rule="nonzero"/><g clip-path="url(#aba37e39c9)"><path fill="#ebc35e" d="M 143.992188 226.308594 C 149.964844 231.25 157.199219 234.621094 164.34375 237.496094 C 170.183594 239.832031 177.640625 243.695312 185.277344 247.289062 C 178.402344 249.398438 171.664062 251.152344 166.230469 252.09375 C 165.511719 252.230469 169.195312 255.914062 169.867188 255.734375 C 176.15625 253.847656 182.582031 251.511719 188.871094 248.996094 C 195.742188 252.140625 202.570312 254.789062 208.1875 255.734375 C 208.90625 255.867188 211.0625 252.09375 210.386719 251.960938 C 205.085938 251.0625 198.933594 249.488281 192.507812 247.46875 C 203.109375 243.019531 213.265625 237.988281 222.070312 233.226562 C 231.636719 228.015625 238.78125 220.648438 243.542969 210.808594 C 247.898438 201.734375 251 191.671875 251.449219 181.566406 C 252.078125 167.546875 247.359375 153.847656 240.082031 142.03125 C 237.925781 138.574219 235.546875 135.113281 232.894531 131.925781 C 233.121094 131.027344 233.164062 130.171875 232.984375 129.363281 C 232.804688 128.421875 232.445312 127.476562 231.863281 126.625 C 230.738281 124.917969 228.941406 123.566406 227.101562 122.535156 C 225.257812 121.5 223.328125 120.871094 221.890625 120.558594 C 221.171875 120.378906 220.585938 120.289062 220.183594 120.199219 C 219.957031 120.199219 219.824219 120.152344 219.6875 120.152344 C 219.597656 120.152344 219.554688 120.152344 219.554688 120.152344 C 219.554688 120.152344 219.597656 120.199219 219.597656 120.289062 C 219.644531 120.378906 219.734375 120.511719 219.824219 120.691406 C 220.003906 121.050781 220.273438 121.589844 220.632812 122.21875 C 221.304688 123.476562 222.25 125.140625 223.328125 126.757812 C 223.867188 127.566406 224.496094 128.375 225.125 129.09375 C 225.4375 129.453125 225.796875 129.8125 226.15625 130.128906 C 226.515625 130.441406 226.875 130.757812 227.234375 131.027344 C 228 131.566406 228.808594 131.96875 229.75 132.195312 C 230.425781 132.375 231.1875 132.464844 231.953125 132.375 C 237.027344 138.394531 241.207031 145.355469 244.351562 152.363281 C 248.394531 161.304688 250.550781 171.007812 250.324219 180.800781 C 250.054688 191.492188 246.507812 202.320312 241.699219 211.796875 C 237.972656 219.164062 232.535156 225.1875 225.617188 229.679688 C 219.417969 233.675781 212.589844 236.6875 205.804688 239.652344 C 200.730469 241.851562 194.710938 244.097656 188.601562 246.121094 C 175.527344 241.761719 161.871094 235.832031 152.390625 230.488281 C 147.449219 227.703125 142.957031 224.289062 139.230469 219.929688 C 135.546875 215.617188 132.851562 210.496094 130.695312 205.238281 C 126.605469 195.3125 124.046875 185.023438 124.675781 174.199219 C 125.394531 161.617188 130.335938 149.578125 137.253906 139.113281 C 139.003906 136.417969 140.9375 133.765625 143.003906 131.25 C 143.765625 131.296875 144.441406 131.207031 145.113281 131.027344 C 146.011719 130.800781 146.820312 130.351562 147.628906 129.859375 C 148.035156 129.589844 148.394531 129.273438 148.707031 128.960938 C 149.066406 128.644531 149.382812 128.285156 149.742188 127.925781 C 150.371094 127.164062 151 126.398438 151.539062 125.589844 C 152.617188 123.972656 153.558594 122.308594 154.234375 121.050781 C 154.59375 120.421875 154.863281 119.882812 155.042969 119.523438 C 155.132812 119.34375 155.222656 119.210938 155.265625 119.121094 C 155.355469 119.121094 155.402344 119.074219 155.402344 119.074219 C 155.402344 119.074219 155.355469 119.074219 155.265625 119.074219 C 155.175781 119.074219 154.996094 119.121094 154.773438 119.121094 C 154.367188 119.164062 153.738281 119.300781 153.019531 119.433594 C 151.582031 119.792969 149.652344 120.46875 147.808594 121.457031 C 145.96875 122.488281 144.171875 123.835938 143.046875 125.546875 C 142.464844 126.355469 142.105469 127.296875 141.925781 128.285156 C 141.789062 129.09375 141.789062 129.949219 142.015625 130.800781 C 137.164062 136.550781 133.164062 143.199219 130.019531 149.894531 C 126.15625 158.113281 123.867188 167.054688 123.507812 176.128906 C 123.101562 186.597656 125.933594 196.613281 129.886719 206.183594 C 133.03125 213.910156 137.566406 220.917969 143.992188 226.308594 Z M 143.992188 226.308594 " fill-opacity="1" fill-rule="nonzero"/></g><path fill="#ebc35e" d="M 220.542969 245.265625 C 222.921875 244.863281 225.125 244.097656 226.695312 243.425781 C 228.269531 242.75 229.257812 242.167969 229.257812 242.167969 C 229.257812 242.167969 228.269531 241.761719 226.695312 241.269531 C 225.125 240.730469 223.058594 240.101562 220.902344 239.5625 C 218.699219 239.023438 216.453125 238.664062 214.34375 238.753906 C 213.308594 238.796875 212.273438 238.976562 211.332031 239.335938 C 210.34375 239.695312 209.445312 240.191406 208.457031 240.953125 C 209.085938 243.15625 211.015625 244.503906 213.265625 245.132812 C 215.601562 245.761719 218.160156 245.714844 220.542969 245.265625 Z M 220.542969 245.265625 " fill-opacity="1" fill-rule="nonzero"/><path fill="#ebc35e" d="M 208.816406 237.449219 C 209.804688 237.269531 210.703125 236.820312 211.511719 236.191406 C 213.128906 234.980469 214.386719 233.09375 215.195312 231.207031 C 216.050781 229.320312 216.5 227.34375 216.769531 225.859375 C 216.902344 225.140625 216.949219 224.511719 216.992188 224.109375 C 217.039062 223.65625 217.039062 223.433594 217.039062 223.433594 C 217.039062 223.433594 216.273438 223.835938 215.152344 224.511719 C 214.027344 225.230469 212.589844 226.175781 211.152344 227.34375 C 209.714844 228.511719 208.320312 229.859375 207.332031 231.429688 C 206.34375 233.003906 205.714844 234.800781 205.804688 237.089844 C 206.792969 237.585938 207.871094 237.628906 208.816406 237.449219 Z M 208.816406 237.449219 " fill-opacity="1" fill-rule="nonzero"/><path fill="#ebc35e" d="M 236.667969 229.09375 C 234.421875 229.183594 232.085938 229.320312 230.15625 229.949219 C 228.179688 230.578125 226.515625 231.609375 225.4375 233.542969 C 226.785156 235.382812 228.71875 236.238281 230.917969 236.328125 C 233.121094 236.417969 235.5 235.789062 237.746094 234.800781 C 239.949219 233.8125 241.96875 232.417969 243.40625 231.25 C 244.125 230.667969 244.710938 230.128906 245.070312 229.769531 C 245.472656 229.410156 245.652344 229.140625 245.652344 229.140625 C 245.652344 229.140625 244.574219 229.140625 242.824219 229.09375 C 241.160156 229.09375 238.914062 229.050781 236.667969 229.09375 Z M 236.667969 229.09375 " fill-opacity="1" fill-rule="nonzero"/><path fill="#ebc35e" d="M 221.621094 230.171875 C 223.777344 230.308594 225.527344 229.230469 226.742188 227.65625 C 228 226.085938 228.71875 223.972656 229.03125 221.949219 C 229.347656 219.882812 229.257812 217.953125 228.988281 216.515625 C 228.898438 215.796875 228.761719 215.210938 228.628906 214.808594 C 228.539062 214.402344 228.449219 214.179688 228.449219 214.179688 C 228.449219 214.179688 228.3125 214.3125 228.089844 214.539062 C 227.863281 214.808594 227.503906 215.167969 227.144531 215.617188 C 226.335938 216.515625 225.257812 217.773438 224.179688 219.253906 C 223.101562 220.738281 222.070312 222.398438 221.484375 224.242188 C 220.902344 226.085938 220.722656 228.0625 221.621094 230.171875 Z M 221.621094 230.171875 " fill-opacity="1" fill-rule="nonzero"/><path fill="#ebc35e" d="M 251.269531 218.984375 C 251.492188 218.714844 251.71875 218.445312 251.941406 218.175781 L 252.257812 217.773438 L 252.527344 217.414062 C 252.839844 216.964844 253.15625 216.515625 253.425781 216.109375 C 254.007812 215.257812 254.457031 214.402344 254.863281 213.730469 C 255.265625 213.011719 255.582031 212.425781 255.761719 211.976562 C 255.984375 211.527344 256.074219 211.304688 256.074219 211.304688 C 256.074219 211.304688 255.085938 211.617188 253.515625 212.066406 C 251.988281 212.5625 249.964844 213.28125 247.988281 214.179688 C 247.496094 214.402344 247 214.671875 246.507812 214.941406 C 245.96875 215.257812 245.472656 215.527344 244.980469 215.839844 C 244.484375 216.15625 243.992188 216.425781 243.542969 216.738281 C 243.09375 217.054688 242.644531 217.367188 242.238281 217.683594 C 240.578125 218.984375 239.363281 220.46875 238.824219 222.667969 C 240.667969 224.015625 242.777344 224.289062 244.980469 223.566406 C 247.226562 222.757812 249.425781 221.140625 251.269531 218.984375 Z M 251.269531 218.984375 " fill-opacity="1" fill-rule="nonzero"/><path fill="#ebc35e" d="M 238.0625 209.820312 C 237.476562 207.800781 236.667969 205.957031 235.996094 204.65625 C 235.636719 203.980469 235.367188 203.488281 235.097656 203.082031 C 234.871094 202.722656 234.691406 202.5 234.691406 202.5 C 234.691406 202.5 234.601562 202.722656 234.46875 203.082031 C 234.332031 203.441406 234.109375 203.9375 233.839844 204.566406 C 233.613281 205.195312 233.34375 205.957031 233.121094 206.765625 C 232.894531 207.574219 232.625 208.609375 232.582031 209.238281 C 232.402344 210.675781 232.132812 212.425781 232.265625 214.222656 C 232.402344 216.019531 232.851562 217.953125 234.289062 219.75 C 236.355469 219.253906 237.703125 217.726562 238.285156 215.839844 C 238.421875 215.347656 238.554688 214.898438 238.601562 214.359375 C 238.644531 213.863281 238.644531 213.324219 238.644531 212.832031 C 238.601562 212.335938 238.511719 211.796875 238.421875 211.347656 C 238.332031 210.855469 238.195312 210.359375 238.0625 209.820312 Z M 238.0625 209.820312 " fill-opacity="1" fill-rule="nonzero"/><path fill="#ebc35e" d="M 261.015625 193.964844 C 261.152344 193.515625 261.195312 193.199219 261.195312 193.199219 C 261.195312 193.199219 260.296875 193.695312 258.816406 194.457031 C 257.378906 195.222656 255.535156 196.34375 253.738281 197.601562 C 251.898438 198.859375 250.101562 200.253906 248.933594 201.871094 C 248.664062 202.273438 248.347656 202.679688 248.125 203.128906 C 247.898438 203.53125 247.675781 203.980469 247.539062 204.476562 C 247.269531 205.417969 247.179688 206.40625 247.359375 207.484375 C 249.515625 208.113281 251.539062 207.621094 253.335938 206.453125 C 253.785156 206.183594 254.234375 205.824219 254.636719 205.464844 C 255.042969 205.105469 255.492188 204.699219 255.851562 204.296875 C 256.570312 203.441406 257.242188 202.5 257.871094 201.511719 C 259.128906 199.578125 259.894531 197.46875 260.433594 195.851562 C 260.703125 195.132812 260.925781 194.457031 261.015625 193.964844 Z M 261.015625 193.964844 " fill-opacity="1" fill-rule="nonzero"/><path fill="#ebc35e" d="M 242.195312 205.734375 C 243.046875 205.105469 243.675781 204.339844 244.125 203.488281 C 244.351562 203.082031 244.484375 202.589844 244.621094 202.140625 C 244.753906 201.691406 244.800781 201.195312 244.800781 200.703125 C 244.800781 198.679688 244.214844 196.613281 243.363281 194.726562 C 242.417969 192.839844 241.25 191.222656 240.351562 190.101562 C 239.902344 189.515625 239.5 189.066406 239.183594 188.753906 C 238.871094 188.4375 238.691406 188.257812 238.691406 188.257812 C 238.691406 188.257812 238.644531 188.484375 238.601562 188.84375 C 238.511719 189.203125 238.421875 189.742188 238.285156 190.371094 C 238.0625 191.671875 237.925781 193.425781 237.835938 195.265625 C 237.792969 196.210938 237.835938 197.152344 237.972656 198.140625 C 238.015625 198.410156 238.0625 198.636719 238.0625 198.859375 C 238.105469 199.085938 238.105469 199.355469 238.152344 199.578125 C 238.242188 200.074219 238.375 200.523438 238.511719 200.972656 C 239.050781 202.902344 240.21875 204.566406 242.195312 205.734375 Z M 242.195312 205.734375 " fill-opacity="1" fill-rule="nonzero"/><g clip-path="url(#ca5e2064bf)"><path fill="#ebc35e" d="M 256.164062 180.21875 C 255.804688 180.621094 255.445312 181.027344 255.085938 181.476562 C 254.726562 181.878906 254.414062 182.328125 254.054688 182.777344 C 253.378906 183.632812 252.796875 184.53125 252.390625 185.472656 C 252.167969 185.921875 252.03125 186.417969 251.898438 186.867188 C 251.761719 187.316406 251.628906 187.808594 251.582031 188.257812 C 251.492188 189.203125 251.582031 190.191406 251.988281 191.222656 C 254.234375 191.449219 256.121094 190.550781 257.691406 189.066406 C 258.097656 188.707031 258.457031 188.304688 258.816406 187.855469 C 259.128906 187.40625 259.445312 186.910156 259.714844 186.417969 C 260.253906 185.429688 260.746094 184.304688 261.152344 183.226562 C 261.375 182.6875 261.511719 182.105469 261.644531 181.566406 C 261.78125 181.027344 261.871094 180.488281 262.003906 179.949219 C 262.183594 178.871094 262.363281 177.925781 262.410156 177.074219 C 262.5 175.367188 262.5 174.242188 262.5 174.242188 C 262.5 174.242188 261.691406 174.917969 260.476562 176.039062 C 259.308594 177.117188 257.648438 178.601562 256.164062 180.21875 Z M 256.164062 180.21875 " fill-opacity="1" fill-rule="nonzero"/></g><path fill="#ebc35e" d="M 248.035156 187.496094 C 248.167969 187.046875 248.214844 186.550781 248.257812 186.101562 C 248.257812 185.609375 248.214844 185.160156 248.125 184.664062 C 247.945312 183.675781 247.585938 182.734375 247.136719 181.835938 C 247.046875 181.609375 246.910156 181.386719 246.777344 181.160156 C 246.640625 180.9375 246.507812 180.710938 246.328125 180.488281 C 246.011719 180.039062 245.699219 179.632812 245.382812 179.230469 C 244.710938 178.421875 244.035156 177.703125 243.363281 177.074219 C 243.046875 176.757812 242.6875 176.488281 242.375 176.21875 C 242.058594 175.949219 241.699219 175.726562 241.429688 175.5 C 240.21875 174.648438 239.410156 174.195312 239.410156 174.195312 C 239.410156 174.195312 239.410156 175.007812 239.542969 176.265625 C 239.589844 176.578125 239.589844 176.894531 239.632812 177.296875 C 239.679688 177.65625 239.679688 178.015625 239.722656 178.421875 C 239.8125 179.230469 239.992188 180.082031 240.171875 180.980469 C 240.308594 181.878906 240.53125 182.777344 240.847656 183.675781 C 241.027344 184.125 241.207031 184.574219 241.386719 185.023438 C 241.566406 185.472656 241.789062 185.878906 242.015625 186.28125 C 242.957031 187.945312 244.394531 189.335938 246.550781 190.101562 C 247.316406 189.246094 247.765625 188.394531 248.035156 187.496094 Z M 248.035156 187.496094 " fill-opacity="1" fill-rule="nonzero"/><path fill="#ebc35e" d="M 252.078125 168.714844 C 251.851562 169.703125 251.761719 170.648438 251.941406 171.589844 C 252.03125 172.085938 252.167969 172.535156 252.347656 172.984375 C 252.527344 173.433594 252.75 173.925781 253.019531 174.378906 C 255.265625 174.0625 256.972656 172.757812 258.050781 170.917969 C 258.589844 169.972656 259.039062 168.941406 259.355469 167.816406 C 259.667969 166.695312 259.804688 165.527344 259.894531 164.359375 C 259.9375 163.773438 259.984375 163.191406 259.984375 162.605469 C 259.984375 162.023438 259.9375 161.484375 259.894531 160.945312 C 259.804688 159.867188 259.714844 158.878906 259.578125 158.023438 C 259.21875 156.363281 258.90625 155.285156 258.90625 155.285156 C 258.90625 155.285156 258.277344 156.183594 257.421875 157.53125 C 257.019531 158.203125 256.523438 159.011719 255.984375 159.910156 C 255.445312 160.808594 254.90625 161.753906 254.414062 162.695312 C 253.917969 163.640625 253.425781 164.671875 252.976562 165.660156 C 252.570312 166.738281 252.257812 167.726562 252.078125 168.714844 Z M 252.078125 168.714844 " fill-opacity="1" fill-rule="nonzero"/><path fill="#ebc35e" d="M 247.765625 168.402344 C 247.359375 167.503906 246.730469 166.695312 246.058594 165.929688 C 245.742188 165.570312 245.382812 165.167969 244.980469 164.851562 C 244.621094 164.492188 244.171875 164.179688 243.765625 163.910156 C 242.105469 162.695312 240.398438 161.84375 239.003906 161.347656 C 237.613281 160.855469 236.714844 160.628906 236.714844 160.628906 C 236.714844 160.628906 236.894531 161.394531 237.34375 162.5625 C 237.523438 163.144531 237.746094 163.820312 238.0625 164.539062 C 238.195312 164.898438 238.375 165.257812 238.554688 165.660156 C 238.734375 166.066406 238.871094 166.425781 239.09375 166.828125 C 239.453125 167.636719 239.949219 168.445312 240.488281 169.210938 C 240.980469 169.972656 241.566406 170.738281 242.238281 171.410156 C 243.632812 172.714844 245.25 173.792969 247.539062 173.972656 C 247.808594 173.523438 248.035156 173.074219 248.167969 172.625 C 248.304688 172.175781 248.347656 171.679688 248.347656 171.230469 C 248.347656 170.242188 248.167969 169.300781 247.765625 168.402344 Z M 247.765625 168.402344 " fill-opacity="1" fill-rule="nonzero"/><path fill="#ebc35e" d="M 250.863281 138.167969 C 250.863281 138.167969 250.503906 139.15625 249.964844 140.683594 C 249.425781 142.210938 248.84375 144.234375 248.304688 146.390625 C 248.035156 147.46875 247.855469 148.546875 247.675781 149.578125 C 247.496094 150.65625 247.449219 151.691406 247.496094 152.679688 C 247.539062 153.171875 247.585938 153.667969 247.675781 154.117188 C 247.765625 154.609375 247.898438 155.058594 248.078125 155.464844 C 248.257812 155.914062 248.527344 156.316406 248.796875 156.722656 C 249.066406 157.125 249.382812 157.484375 249.785156 157.890625 C 250.820312 157.441406 251.671875 156.8125 252.347656 156.046875 C 253.019531 155.238281 253.46875 154.339844 253.785156 153.308594 C 253.917969 152.8125 254.054688 152.273438 254.144531 151.691406 C 254.234375 151.152344 254.277344 150.566406 254.277344 149.984375 C 254.277344 148.859375 254.144531 147.648438 253.964844 146.523438 C 253.515625 144.277344 252.796875 142.121094 252.078125 140.59375 C 251.71875 139.832031 251.449219 139.203125 251.222656 138.796875 C 251 138.394531 250.863281 138.167969 250.863281 138.167969 Z M 250.863281 138.167969 " fill-opacity="1" fill-rule="nonzero"/><path fill="#ebc35e" d="M 244.125 154.160156 C 243.902344 153.757812 243.675781 153.351562 243.363281 152.992188 C 242.734375 152.230469 241.96875 151.601562 241.117188 151.015625 C 240.261719 150.433594 239.320312 149.984375 238.375 149.625 C 237.882812 149.445312 237.433594 149.265625 236.984375 149.128906 C 236.535156 148.996094 236.039062 148.859375 235.589844 148.769531 C 234.691406 148.546875 233.839844 148.410156 233.121094 148.320312 C 232.402344 148.230469 231.816406 148.1875 231.367188 148.1875 C 230.917969 148.1875 230.695312 148.1875 230.695312 148.1875 C 230.695312 148.1875 230.785156 148.367188 231.007812 148.679688 C 231.1875 148.996094 231.457031 149.445312 231.773438 149.9375 C 231.953125 150.207031 232.132812 150.476562 232.355469 150.746094 C 232.445312 150.882812 232.582031 151.0625 232.671875 151.195312 C 232.761719 151.332031 232.894531 151.511719 232.984375 151.691406 C 233.433594 152.320312 233.972656 152.992188 234.601562 153.667969 C 235.140625 154.339844 235.769531 155.015625 236.488281 155.597656 C 236.667969 155.777344 236.847656 155.914062 237.027344 156.046875 C 237.207031 156.183594 237.386719 156.316406 237.566406 156.496094 C 237.925781 156.765625 238.332031 157.035156 238.734375 157.261719 C 239.542969 157.710938 240.488281 158.070312 241.429688 158.292969 C 242.375 158.519531 243.40625 158.5625 244.53125 158.382812 C 244.664062 157.890625 244.800781 157.394531 244.800781 156.902344 C 244.800781 156.453125 244.753906 155.957031 244.621094 155.507812 C 244.484375 155.015625 244.351562 154.566406 244.125 154.160156 Z M 244.125 154.160156 " fill-opacity="1" fill-rule="nonzero"/><path fill="#ebc35e" d="M 242.6875 142.929688 C 244.484375 141.582031 245.339844 139.652344 245.472656 137.539062 C 245.519531 136.507812 245.429688 135.382812 245.160156 134.261719 C 244.933594 133.136719 244.53125 132.058594 244.082031 131.027344 C 243.632812 129.992188 243.09375 129.003906 242.554688 128.105469 C 242.015625 127.207031 241.476562 126.445312 240.980469 125.769531 C 240.488281 125.097656 240.082031 124.601562 239.769531 124.242188 C 239.453125 123.882812 239.273438 123.703125 239.273438 123.703125 C 239.273438 123.703125 239.09375 124.738281 238.914062 126.308594 C 238.824219 127.117188 238.734375 128.0625 238.644531 129.050781 C 238.601562 129.542969 238.554688 130.082031 238.554688 130.578125 C 238.511719 131.117188 238.511719 131.65625 238.511719 132.195312 C 238.511719 134.351562 238.601562 136.597656 239.183594 138.484375 C 239.453125 139.425781 239.859375 140.324219 240.441406 141.042969 C 241.027344 141.808594 241.746094 142.4375 242.6875 142.929688 Z M 242.6875 142.929688 " fill-opacity="1" fill-rule="nonzero"/><path fill="#ebc35e" d="M 235.277344 139.15625 C 233.703125 137.988281 231.683594 137.316406 229.660156 137 C 228.671875 136.820312 227.640625 136.777344 226.742188 136.777344 C 225.796875 136.777344 224.945312 136.820312 224.226562 136.867188 C 222.742188 137 221.800781 137.226562 221.800781 137.226562 C 221.800781 137.226562 221.933594 137.359375 222.203125 137.628906 C 222.472656 137.898438 222.832031 138.257812 223.28125 138.707031 C 223.730469 139.15625 224.269531 139.652344 224.898438 140.191406 C 225.484375 140.730469 226.203125 141.269531 226.921875 141.808594 C 227.640625 142.347656 228.402344 142.839844 229.257812 143.289062 C 230.066406 143.738281 230.917969 144.144531 231.863281 144.367188 C 233.660156 144.90625 235.636719 144.996094 237.746094 144.054688 C 237.792969 143.019531 237.566406 142.078125 237.164062 141.269531 C 236.667969 140.414062 236.039062 139.742188 235.277344 139.15625 Z M 235.277344 139.15625 " fill-opacity="1" fill-rule="nonzero"/><g clip-path="url(#ef5588fd4b)"><path fill="#fff4f0" d="M 212.457031 165.652344 L 221.714844 172.964844 L 226.089844 169.519531 C 225.476562 164.011719 223.695312 158.867188 221.027344 154.292969 L 215.71875 154.175781 Z M 212.457031 165.652344 " fill-opacity="1" fill-rule="nonzero"/></g><g clip-path="url(#8c45a7d849)"><path fill="#fff4f0" d="M 223.09375 176.980469 C 222.667969 177.296875 222.175781 177.453125 221.691406 177.453125 C 221.214844 177.453125 220.746094 177.304688 220.34375 177.007812 L 209.703125 168.613281 L 204.246094 170.105469 L 198.6875 186.390625 L 202.472656 191.324219 L 215.84375 190.878906 C 216.75 190.765625 217.777344 191.429688 218.113281 192.480469 L 219.234375 196.222656 C 223.578125 190.058594 226.175781 182.585938 226.3125 174.515625 Z M 223.09375 176.980469 " fill-opacity="1" fill-rule="nonzero"/></g><path fill="#fff4f0" d="M 187.5 160.476562 L 174.710938 169.242188 L 180.003906 184.746094 L 194.996094 184.746094 L 200.289062 169.242188 Z M 187.5 160.476562 " fill-opacity="1" fill-rule="nonzero"/><path fill="#fff4f0" d="M 200.632812 143.15625 L 189.511719 150.78125 L 189.511719 156.96875 L 203.054688 166.253906 L 208.527344 164.757812 L 212.207031 151.800781 C 212.546875 150.765625 213.433594 150.121094 214.433594 150.121094 L 218.28125 150.207031 C 213.714844 144.253906 207.484375 139.671875 200.277344 137.148438 L 201.457031 140.539062 C 201.777344 141.519531 201.445312 142.566406 200.632812 143.15625 Z M 200.632812 143.15625 " fill-opacity="1" fill-rule="nonzero"/><path fill="#fff4f0" d="M 172.734375 208.941406 L 176.082031 206.570312 L 172.0625 195.339844 L 160.347656 194.949219 L 158.871094 200.058594 C 162.5 204.039062 166.925781 207.273438 171.914062 209.472656 Z M 172.734375 208.941406 " fill-opacity="1" fill-rule="nonzero"/><path fill="#fff4f0" d="M 215.832031 198.890625 L 214.652344 194.945312 L 202.9375 195.339844 L 198.921875 206.574219 L 202.96875 209.527344 C 208.011719 207.324219 212.472656 204.066406 216.136719 200.054688 Z M 215.832031 198.890625 " fill-opacity="1" fill-rule="nonzero"/><g clip-path="url(#630a1c124a)"><path fill="#fff4f0" d="M 197.226562 140.605469 L 195.550781 135.792969 C 192.953125 135.242188 190.261719 134.941406 187.5 134.941406 C 184.699219 134.941406 181.972656 135.253906 179.335938 135.820312 L 177.773438 140.605469 L 187.5 147.277344 Z M 197.226562 140.605469 " fill-opacity="1" fill-rule="nonzero"/></g><path fill="#fff4f0" d="M 162.769531 151.722656 L 166.472656 164.757812 L 171.945312 166.253906 L 185.488281 156.96875 L 185.488281 150.78125 L 174.414062 143.1875 C 173.558594 142.574219 173.21875 141.527344 173.539062 140.558594 L 174.648438 137.171875 C 167.476562 139.703125 161.273438 144.273438 156.722656 150.203125 L 160.53125 150.121094 C 161.570312 150.121094 162.453125 150.765625 162.769531 151.722656 Z M 162.769531 151.722656 " fill-opacity="1" fill-rule="nonzero"/><g clip-path="url(#24f3b269e8)"><path fill="#fff4f0" d="M 172.527344 191.328125 L 176.3125 186.390625 L 170.753906 170.105469 L 165.296875 168.613281 L 154.71875 176.960938 C 154.273438 177.289062 153.773438 177.445312 153.28125 177.445312 C 152.808594 177.445312 152.34375 177.300781 151.945312 177.007812 L 148.6875 174.515625 C 148.824219 182.601562 151.433594 190.082031 155.789062 196.253906 L 156.875 192.519531 C 157.234375 191.421875 158.273438 190.777344 159.335938 190.890625 Z M 172.527344 191.328125 " fill-opacity="1" fill-rule="nonzero"/></g><g clip-path="url(#6c7332f250)"><path fill="#fff4f0" d="M 153.285156 172.964844 L 162.542969 165.652344 L 159.28125 154.175781 L 153.972656 154.292969 C 151.277344 158.910156 149.480469 164.113281 148.886719 169.679688 L 149.914062 170.386719 Z M 153.285156 172.964844 " fill-opacity="1" fill-rule="nonzero"/></g><path fill="#fff4f0" d="M 179.558594 188.777344 L 175.761719 193.730469 L 180.304688 206.433594 C 180.679688 207.277344 180.382812 208.414062 179.527344 209.066406 L 176.558594 211.167969 C 180.035156 212.191406 183.699219 212.765625 187.5 212.765625 C 191.300781 212.765625 194.964844 212.191406 198.441406 211.167969 L 195.53125 209.109375 C 194.621094 208.414062 194.324219 207.277344 194.75 206.300781 L 199.242188 193.730469 L 195.441406 188.777344 Z M 179.558594 188.777344 " fill-opacity="1" fill-rule="nonzero"/><path fill="#fff4f0" d="M 212.851562 241.082031 C 212.851562 240.738281 212.574219 240.460938 212.234375 240.460938 L 192.445312 240.460938 L 194.34375 216.195312 C 192.109375 216.554688 189.835938 216.792969 187.5 216.792969 C 185.167969 216.792969 182.890625 216.554688 180.660156 216.195312 L 182.554688 240.460938 L 162.769531 240.460938 C 162.425781 240.460938 162.148438 240.738281 162.148438 241.082031 L 162.148438 269.519531 L 212.851562 269.519531 Z M 212.851562 241.082031 " fill-opacity="1" fill-rule="nonzero"/><g clip-path="url(#f6f63ee0bd)"><path fill="#fff4f0" d="M 217.109375 273.550781 L 157.890625 273.550781 C 157.550781 273.550781 157.273438 273.828125 157.273438 274.167969 L 157.273438 284.214844 C 157.273438 284.558594 157.550781 284.835938 157.890625 284.835938 L 217.109375 284.835938 C 217.449219 284.835938 217.726562 284.558594 217.726562 284.214844 L 217.726562 274.167969 C 217.726562 273.828125 217.449219 273.550781 217.109375 273.550781 Z M 217.109375 273.550781 " fill-opacity="1" fill-rule="nonzero"/></g><g clip-path="url(#7378faecec)"><path fill="#ebc35e" d="M 167.332031 127.476562 C 169.722656 128.640625 176.964844 129.9375 187.5 129.953125 C 198.035156 129.9375 205.277344 128.640625 207.667969 127.476562 C 205.28125 126.308594 198.035156 125.003906 187.5 125 C 176.964844 125.003906 169.71875 126.308594 167.332031 127.476562 " fill-opacity="1" fill-rule="nonzero"/></g><g clip-path="url(#e5dd617a2f)"><path fill="#ebc35e" d="M 210.582031 111.390625 C 209.363281 112.714844 208.207031 113.769531 207.082031 114.585938 C 205.261719 114.070312 203.308594 113.628906 201.246094 113.28125 C 201.546875 112.933594 201.847656 112.574219 202.148438 112.195312 C 204.019531 109.832031 205.710938 106.859375 205.722656 104.019531 C 205.734375 102.707031 205.527344 101.539062 205.164062 100.515625 C 205.175781 100.492188 205.1875 100.46875 205.203125 100.441406 C 205.167969 100.367188 205.144531 100.285156 205.132812 100.199219 C 206.59375 99.507812 208.101562 99.085938 209.523438 99.085938 C 210.558594 99.085938 211.488281 99.339844 212.226562 99.816406 C 212.292969 99.855469 212.359375 99.898438 212.421875 99.945312 C 213.167969 100.488281 214.097656 101.722656 214.261719 103.40625 C 214.328125 104.082031 214.269531 104.792969 214.089844 105.527344 C 213.628906 106.859375 212.601562 108.722656 211.242188 110.640625 C 211.03125 110.886719 210.816406 111.140625 210.582031 111.390625 Z M 197.335938 112.730469 C 196.570312 112.640625 195.796875 112.566406 195.019531 112.503906 C 194.003906 112.414062 192.980469 112.347656 191.945312 112.296875 C 191.191406 112.257812 189.863281 112.21875 189.105469 112.199219 C 189.15625 108.871094 189.023438 105.5 189.371094 103.414062 C 189.886719 100.324219 192.964844 98.238281 195.703125 98.183594 C 197.296875 98.15625 199.070312 98.417969 200.378906 99.488281 C 200.523438 99.605469 200.664062 99.730469 200.796875 99.867188 C 201.328125 100.429688 201.753906 101.164062 201.992188 102.113281 C 202.128906 102.667969 202.207031 103.292969 202.203125 104.003906 C 202.203125 104.144531 202.171875 104.300781 202.15625 104.457031 C 202.117188 104.886719 201.992188 105.375 201.695312 106.015625 C 201.015625 107.476562 199.953125 109.28125 198.714844 110.953125 C 198.261719 111.566406 197.792969 112.160156 197.335938 112.730469 Z M 183.054688 112.296875 C 182.019531 112.347656 180.996094 112.414062 179.980469 112.503906 C 179.203125 112.566406 178.429688 112.640625 177.664062 112.730469 C 177.207031 112.160156 176.738281 111.566406 176.285156 110.953125 C 175.046875 109.28125 173.980469 107.476562 173.304688 106.015625 C 173.007812 105.375 172.882812 104.886719 172.84375 104.457031 C 172.828125 104.300781 172.796875 104.144531 172.796875 104.003906 C 172.792969 103.292969 172.867188 102.667969 173.007812 102.113281 C 173.246094 101.164062 173.671875 100.429688 174.203125 99.867188 C 174.335938 99.730469 174.476562 99.605469 174.617188 99.488281 C 175.925781 98.417969 177.703125 98.15625 179.296875 98.183594 C 182.035156 98.238281 185.113281 100.324219 185.628906 103.414062 C 185.976562 105.5 185.84375 108.871094 185.894531 112.199219 C 185.136719 112.21875 183.808594 112.257812 183.054688 112.296875 Z M 167.917969 114.585938 C 166.792969 113.769531 165.636719 112.714844 164.417969 111.390625 C 164.183594 111.140625 163.96875 110.886719 163.757812 110.640625 C 162.398438 108.722656 161.367188 106.859375 160.910156 105.527344 C 160.730469 104.792969 160.671875 104.082031 160.738281 103.40625 C 160.902344 101.722656 161.832031 100.488281 162.578125 99.945312 C 162.640625 99.898438 162.707031 99.855469 162.773438 99.816406 C 163.511719 99.339844 164.441406 99.085938 165.476562 99.085938 C 166.898438 99.085938 168.402344 99.507812 169.867188 100.199219 C 169.855469 100.285156 169.832031 100.367188 169.796875 100.441406 C 169.8125 100.46875 169.824219 100.492188 169.835938 100.515625 C 169.472656 101.539062 169.265625 102.707031 169.273438 104.019531 C 169.289062 106.859375 170.980469 109.832031 172.851562 112.195312 C 173.152344 112.574219 173.453125 112.933594 173.753906 113.28125 C 171.691406 113.628906 169.738281 114.070312 167.917969 114.585938 Z M 212.839844 113.472656 C 220.261719 105.417969 216.914062 99.425781 214.230469 97.464844 C 213.910156 97.230469 213.570312 97.023438 213.210938 96.84375 C 212.117188 96.300781 210.863281 96.015625 209.523438 96.015625 C 209.410156 96.015625 209.296875 96.019531 209.183594 96.023438 C 207.269531 96.089844 205.292969 96.691406 203.417969 97.628906 C 203.386719 97.597656 203.359375 97.570312 203.324219 97.53125 C 201.382812 95.566406 198.59375 94.761719 195.5625 94.855469 C 193.636719 94.917969 191.871094 95.605469 190.367188 96.738281 C 191.183594 96.039062 191.675781 95.054688 191.628906 93.96875 C 191.539062 92.070312 189.964844 90.546875 188.019531 90.265625 C 188.015625 89.933594 188.015625 89.214844 188.011719 88.878906 C 188.546875 88.878906 189.078125 88.871094 189.609375 88.859375 L 189.609375 87.894531 C 189.074219 87.90625 188.539062 87.914062 188 87.917969 C 187.996094 87.332031 187.992188 86.746094 187.984375 86.160156 C 187.824219 86.160156 187.660156 86.160156 187.5 86.160156 C 187.339844 86.160156 187.175781 86.160156 187.011719 86.160156 C 187.007812 86.746094 187.003906 87.332031 186.996094 87.917969 C 186.527344 87.914062 186.054688 87.90625 185.582031 87.898438 L 185.582031 88.863281 C 186.140625 88.875 186.625 88.882812 186.988281 88.878906 C 186.984375 89.214844 186.984375 89.933594 186.980469 90.265625 C 185.035156 90.546875 183.457031 92.070312 183.371094 93.96875 C 183.324219 95.054688 183.816406 96.039062 184.632812 96.738281 C 183.128906 95.605469 181.363281 94.917969 179.4375 94.855469 C 176.40625 94.761719 173.613281 95.566406 171.675781 97.53125 C 171.640625 97.570312 171.613281 97.597656 171.582031 97.628906 C 169.707031 96.691406 167.730469 96.089844 165.816406 96.023438 C 165.703125 96.019531 165.589844 96.015625 165.476562 96.015625 C 164.136719 96.015625 162.882812 96.300781 161.789062 96.84375 C 161.429688 97.023438 161.089844 97.230469 160.765625 97.464844 C 158.085938 99.425781 154.738281 105.417969 162.160156 113.472656 C 161.929688 113.222656 161.707031 112.972656 161.496094 112.726562 C 161.480469 112.734375 161.464844 112.742188 161.449219 112.75 C 162.433594 113.980469 163.417969 115.058594 164.207031 115.828125 C 164.191406 115.832031 164.175781 115.839844 164.160156 115.847656 C 165.90625 117.246094 165.335938 118.632812 165.96875 120.011719 L 165.847656 120.011719 C 165.847656 120.046875 165.851562 120.085938 165.855469 120.121094 C 165.6875 120.148438 165.519531 120.171875 165.355469 120.199219 C 165.160156 120.851562 164.972656 121.511719 164.796875 122.175781 C 165.128906 122.738281 165.460938 123.296875 165.792969 123.855469 C 165.941406 123.820312 166.09375 123.792969 166.246094 123.761719 C 166.445312 125.597656 166.632812 127.269531 166.632812 127.269531 L 166.675781 127.269531 C 167.347656 125.550781 176.410156 124.183594 187.5 124.179688 C 198.589844 124.183594 207.652344 125.550781 208.324219 127.269531 L 208.367188 127.269531 C 208.367188 127.269531 208.554688 125.597656 208.753906 123.761719 C 208.90625 123.792969 209.054688 123.820312 209.207031 123.855469 C 209.539062 123.296875 209.871094 122.738281 210.203125 122.175781 C 210.027344 121.511719 209.839844 120.851562 209.644531 120.199219 C 209.480469 120.171875 209.308594 120.148438 209.140625 120.121094 C 209.148438 120.085938 209.152344 120.046875 209.152344 120.011719 L 209.027344 120.011719 C 209.664062 118.632812 209.09375 117.246094 210.839844 115.847656 C 210.824219 115.839844 210.808594 115.832031 210.792969 115.828125 C 211.582031 115.058594 212.566406 113.980469 213.546875 112.75 C 213.535156 112.742188 213.515625 112.734375 213.503906 112.726562 C 213.292969 112.972656 213.070312 113.222656 212.839844 113.472656 " fill-opacity="1" fill-rule="nonzero"/></g></svg>